# xmcd
#
# Track frame offsets: 
#        150
#        11491
#        23458
#        33015
#        46441
#        59641
#        72833
#        84240
#        97198
#        109473
#        123050
#        136310
#        158257
#        174510
#        196125
#        214371
#        231641
#        254781
#
# Disc length: 3688 seconds
#
# Revision: 2
# Processed by: cddbd v1.5.2PL0 Copyright (c) Steve Scherf et al.
# Submitted via: ExactAudioCopyFreeDBPlugin 1.0
#
DISCID=f50e6612
DTITLE=Various Artist - BBC Soul Deep:  The Story of Black Popular Mu
DTITLE=sic (39 Soul, Gospel, Funk and R&B Classics from the BBC TV Ser
DTITLE=ies)
DYEAR=2005
DGENRE=Rhythm and Blues
TTITLE0=The Supremes - Where Did Our Love Go
TTITLE1=Martha Reeves and The Vandellas - Dancing in the Street
TTITLE2=James Brown - Papa's Got a Brand New Bag
TTITLE3=The Four Tops - Reach Out, I'll Be There
TTITLE4=James Carr - Love Attack
TTITLE5=Fontella Bass - Rescue Me
TTITLE6=James Carr - Dark End of the Street
TTITLE7=James Brown - Cold Sweat
TTITLE8=Aretha Franklin - I've Never Loved a Man
TTITLE9=Sly and The Family Stone - Dance to the Music
TTITLE10=The Supremes - Love Child
TTITLE11=James Brown - Say It Loud, I'm Black and I'm Proud
TTITLE12=The Temptations - Cloud Nine
TTITLE13=Sly and The Family Stone - Thank You (Falettinme Be Mice Elf Ag
TTITLE13=in)
TTITLE14=The Temptations - Ball of Confusion
TTITLE15=Marvin Gaye - What's Going On
TTITLE16=Parliament - Up for the Down Stroke
TTITLE17=Bobby Brown - My Prerogative
EXTD=
EXTT0=
EXTT1=
EXTT2=
EXTT3=
EXTT4=
EXTT5=
EXTT6=
EXTT7=
EXTT8=
EXTT9=
EXTT10=
EXTT11=
EXTT12=
EXTT13=
EXTT14=
EXTT15=
EXTT16=
EXTT17=
PLAYORDER=
